<svg id="Layer_1" data-name="Layer 1" xmlns="http://www.w3.org/2000/svg" viewBox="0 0 50 50"><defs><style>.cls-1{fill:#bcbcbc;}</style></defs><title>eye</title><path class="cls-1" d="M25.29,34.09A21.79,21.79,0,0,1,8,25.24a5.44,5.44,0,0,1,0-6.67A21.14,21.14,0,0,1,22.82,9.95c8.28-.94,15,2,20.18,8.54a5.45,5.45,0,0,1,0,6.85,21.88,21.88,0,0,1-14.37,8.5c-.43.07-.87.12-1.31.15C26.7,34,26.11,34.05,25.29,34.09Zm0-21.68c-.73.07-1.71.1-2.67.25a18.83,18.83,0,0,0-12.43,7.46,2.8,2.8,0,0,0,0,3.57,18.72,18.72,0,0,0,18.08,7.48,18.37,18.37,0,0,0,12.64-7.48,2.81,2.81,0,0,0,0-3.54C37,15.1,31.87,12.58,25.28,12.41Z"/><path class="cls-1" d="M31.91,21.82a6.56,6.56,0,1,1-6.57-6.55A6.57,6.57,0,0,1,31.91,21.82Zm-2.69,0a3.88,3.88,0,1,0-3.88,3.89A3.86,3.86,0,0,0,29.22,21.82Z"/></svg>